<svg xmlns="http://www.w3.org/2000/svg" height="182.5" width="775"><defs><clipPath id="a"><path d="M0 0h763v792H0V0z"/></clipPath><clipPath id="b"><path d="M0 0h763v792H0V0z"/></clipPath><clipPath id="c"><path d="M70 574h621v148H70V574z"/></clipPath><clipPath id="d"><path d="M101.869 696.202h53.11v23.623h-53.11v-23.623z"/></clipPath><clipPath id="e"><path d="M155.33 696.202h53.11v23.623h-53.11v-23.623z"/></clipPath><clipPath id="f"><path d="M208.79 696.202h53.112v23.623h-53.111v-23.623z"/></clipPath><clipPath id="g"><path d="M262.252 696.202h53.111v23.623h-53.111v-23.623z"/></clipPath><clipPath id="h"><path d="M315.713 696.202h53.111v23.623h-53.11v-23.623z"/></clipPath><clipPath id="i"><path d="M369.174 696.202h53.111v23.623h-53.11v-23.623z"/></clipPath><clipPath id="j"><path d="M422.635 696.202h53.111v23.623h-53.11v-23.623z"/></clipPath><clipPath id="k"><path d="M476.096 696.202h53.111v23.623h-53.11v-23.623z"/></clipPath><clipPath id="l"><path d="M529.557 696.202h53.111v23.623h-53.11v-23.623z"/></clipPath><clipPath id="m"><path d="M583.019 696.202h53.11v23.623h-53.11v-23.623z"/></clipPath><clipPath id="n"><path d="M636.48 696.202h53.11v23.623h-53.11v-23.623z"/></clipPath><clipPath id="o"><path d="M72.175 671.83h29.144v23.622H72.175V671.83z"/></clipPath><clipPath id="p"><path d="M102.069 671.83h52.91v23.622h-52.91V671.83z"/></clipPath><clipPath id="q"><path d="M72.175 647.856h29.144v23.623H72.175v-23.623z"/></clipPath><clipPath id="r"><path d="M155.33 647.856h53.11v23.623h-53.11v-23.623z"/></clipPath><clipPath id="s"><path d="M208.79 647.856h53.112v23.623h-53.111v-23.623z"/></clipPath><clipPath id="t"><path d="M262.252 647.856h53.111v23.623h-53.111v-23.623z"/></clipPath><clipPath id="u"><path d="M315.713 647.856h53.111v23.623h-53.11v-23.623z"/></clipPath><clipPath id="v"><path d="M369.174 647.856h53.111v23.623h-53.11v-23.623z"/></clipPath><clipPath id="w"><path d="M72.175 623.883h29.144v23.623H72.175v-23.623z"/></clipPath><clipPath id="x"><path d="M262.252 623.883h53.111v23.623h-53.111v-23.623z"/></clipPath><clipPath id="y"><path d="M315.713 623.883h53.111v23.623h-53.11v-23.623z"/></clipPath><clipPath id="z"><path d="M369.174 623.883h53.111v23.623h-53.11v-23.623z"/></clipPath><clipPath id="A"><path d="M422.635 623.883h53.111v23.623h-53.11v-23.623z"/></clipPath><clipPath id="B"><path d="M476.096 623.883h53.111v23.623h-53.11v-23.623z"/></clipPath><clipPath id="C"><path d="M72.175 599.91h29.144v23.623H72.175V599.91z"/></clipPath><clipPath id="D"><path d="M369.174 599.91h53.111v23.623h-53.11V599.91z"/></clipPath><clipPath id="E"><path d="M422.635 599.91h53.111v23.623h-53.11V599.91z"/></clipPath><clipPath id="F"><path d="M476.096 599.91h53.111v23.623h-53.11V599.91z"/></clipPath><clipPath id="G"><path d="M529.557 599.91h53.111v23.623h-53.11V599.91z"/></clipPath><clipPath id="H"><path d="M583.019 599.91h53.11v23.623h-53.11V599.91z"/></clipPath><clipPath id="I"><path d="M72.175 575.938h29.144v23.622H72.175v-23.622z"/></clipPath><clipPath id="J"><path d="M636.48 575.938h53.11v23.622h-53.11v-23.622z"/></clipPath><clipPath id="K"><path d="M70 574h621v148H70V574z"/></clipPath></defs><g clip-path="url(#a)" transform="matrix(1.25 0 0 -1.25 -88.75 901.25)"><g clip-path="url(#b)"><path d="M0 0h763v792H0V0z" fill="#fff"/></g><g clip-path="url(#c)"><path d="M72 695.827h29.694V720H72v-24.173z" fill="#bec0bf"/><path d="M101.694 695.827h53.46V720h-53.46v-24.173zM155.155 695.827h53.46V720h-53.46v-24.173zM208.616 695.827h53.461V720h-53.461v-24.173zM262.077 695.827h53.461V720h-53.461v-24.173zM315.538 695.827H369V720h-53.46v-24.173zM369 695.827h53.46V720H369v-24.173zM422.46 695.827h53.461V720h-53.46v-24.173zM475.921 695.827h53.461V720h-53.46v-24.173zM529.382 695.827h53.461V720h-53.46v-24.173zM582.843 695.827h53.462V720h-53.461v-24.173z" fill="#bec0bf"/><path d="M636.304 695.827h53.462V720h-53.461v-24.173z" fill="#bec0bf"/><path d="M72 671.654h29.694v24.173H72v-24.173zM72 647.681h29.694v23.973H72v-23.973zM72 623.708h29.694v23.973H72v-23.973zM72 599.736h29.694v23.972H72v-23.973zM72 575.763h29.694v23.972H72v-23.973z" fill="#dcdcdc"/></g><g clip-path="url(#d)"><text transform="matrix(1 0 0 -1 124 703)" font-weight="700" font-size="13"><tspan y="0" x="0">B</tspan></text></g><g clip-path="url(#e)"><text transform="matrix(1 0 0 -1 177 703)" font-weight="700" font-size="13"><tspan y="0" x="0">A</tspan></text></g><g clip-path="url(#f)"><text transform="matrix(1 0 0 -1 231 703)" font-weight="700" font-size="13"><tspan y="0" x="0">B</tspan></text></g><g clip-path="url(#g)"><text transform="matrix(1 0 0 -1 284 703)" font-weight="700" font-size="13"><tspan y="0" x="0">A</tspan></text></g><g clip-path="url(#h)"><text transform="matrix(1 0 0 -1 338 703)" font-weight="700" font-size="13"><tspan y="0" x="0">B</tspan></text></g><g clip-path="url(#i)"><text transform="matrix(1 0 0 -1 391 703)" font-weight="700" font-size="13"><tspan y="0" x="0">A</tspan></text></g><g clip-path="url(#j)"><text transform="matrix(1 0 0 -1 445 703)" font-weight="700" font-size="13"><tspan y="0" x="0">B</tspan></text></g><g clip-path="url(#k)"><text transform="matrix(1 0 0 -1 498 703)" font-weight="700" font-size="13"><tspan y="0" x="0">A</tspan></text></g><g clip-path="url(#l)"><text transform="matrix(1 0 0 -1 552 703)" font-weight="700" font-size="13"><tspan y="0" x="0">B</tspan></text></g><g clip-path="url(#m)"><text transform="matrix(1 0 0 -1 605 703)" font-weight="700" font-size="13"><tspan y="0" x="0">D</tspan></text></g><g clip-path="url(#n)"><text transform="matrix(1 0 0 -1 658 703)" font-weight="700" font-size="13"><tspan y="0" x="0">C</tspan></text></g><g clip-path="url(#o)"><text transform="matrix(1 0 0 -1 83 679)" font-weight="700" font-size="13"><tspan y="0" x="0">1</tspan></text></g><g clip-path="url(#p)"><text transform="matrix(1 0 0 -1 124 679)" font-weight="700" font-size="13"><tspan y="0" x="0">A</tspan></text></g><g clip-path="url(#q)"><text transform="matrix(1 0 0 -1 83 655)" font-weight="700" font-size="13"><tspan y="0" x="0">2</tspan></text></g><g clip-path="url(#r)"><text transform="matrix(1 0 0 -1 177 655)" font-weight="700" font-size="13"><tspan y="0" x="0">A</tspan></text></g><g clip-path="url(#s)"><text transform="matrix(1 0 0 -1 231 655)" font-weight="700" font-size="13"><tspan y="0" x="0">B</tspan></text></g><g clip-path="url(#t)"><text transform="matrix(1 0 0 -1 284 655)" font-weight="700" font-size="13"><tspan y="0" x="0">A</tspan></text></g><g clip-path="url(#u)"><text transform="matrix(1 0 0 -1 338 655)" font-weight="700" font-size="13"><tspan y="0" x="0">B</tspan></text></g><g clip-path="url(#v)"><text transform="matrix(1 0 0 -1 391 655)" font-weight="700" font-size="13"><tspan y="0" x="0">D</tspan></text></g><g clip-path="url(#w)"><text transform="matrix(1 0 0 -1 83 631)" font-weight="700" font-size="13"><tspan y="0" x="0">3</tspan></text></g><g clip-path="url(#x)"><text transform="matrix(1 0 0 -1 285 632)" font-weight="400" font-size="13" fill="#7f7f7f"><tspan y="0" x="0">A</tspan></text></g><g clip-path="url(#y)"><text transform="matrix(1 0 0 -1 338 632)" font-weight="400" font-size="13" fill="#7f7f7f"><tspan y="0" x="0">B</tspan></text></g><g clip-path="url(#z)"><text transform="matrix(1 0 0 -1 391 631)" font-weight="700" font-size="13"><tspan y="0" x="0">A</tspan></text></g><g clip-path="url(#A)"><text transform="matrix(1 0 0 -1 445 631)" font-weight="700" font-size="13"><tspan y="0" x="0">B</tspan></text></g><g clip-path="url(#B)"><text transform="matrix(1 0 0 -1 498 631)" font-weight="700" font-size="13"><tspan y="0" x="0">D</tspan></text></g><g clip-path="url(#C)"><text transform="matrix(1 0 0 -1 83 607)" font-weight="700" font-size="13"><tspan y="0" x="0">4</tspan></text></g><g clip-path="url(#D)"><text transform="matrix(1 0 0 -1 392 608)" font-weight="400" font-size="13" fill="#7f7f7f"><tspan y="0" x="0">A</tspan></text></g><g clip-path="url(#E)"><text transform="matrix(1 0 0 -1 445 608)" font-weight="400" font-size="13" fill="#7f7f7f"><tspan y="0" x="0">B</tspan></text></g><g clip-path="url(#F)"><text transform="matrix(1 0 0 -1 498 607)" font-weight="700" font-size="13"><tspan y="0" x="0">A</tspan></text></g><g clip-path="url(#G)"><text transform="matrix(1 0 0 -1 552 607)" font-weight="700" font-size="13"><tspan y="0" x="0">B</tspan></text></g><g clip-path="url(#H)"><text transform="matrix(1 0 0 -1 605 607)" font-weight="700" font-size="13"><tspan y="0" x="0">D</tspan></text></g><g clip-path="url(#I)"><text transform="matrix(1 0 0 -1 83 583)" font-weight="700" font-size="13"><tspan y="0" x="0">5</tspan></text></g><g clip-path="url(#J)"><text transform="matrix(1 0 0 -1 659 583)" font-weight="700" font-size="13"><tspan y="0" x="0">A</tspan></text></g><g clip-path="url(#K)"><path d="M155.155 720.5v-24.673M155.155 695.827V575.263M208.616 720.5v-24.673M208.616 695.827V575.263M262.077 720.5v-24.673M262.077 695.827V575.263M315.538 720.5v-24.673M315.538 695.827V575.263M369 720.5v-24.673M369 695.827V575.263M422.46 720.5v-24.673M422.46 695.827V575.263M475.921 720.5v-24.673M475.921 695.827V575.263M529.382 720.5v-24.673M529.382 695.827V575.263M582.843 720.5v-24.673M582.843 695.827V575.263M636.304 720.5v-24.673M636.304 695.827V575.263M71.5 671.654h30.194M101.694 671.654h588.572M71.5 647.681h30.194M101.694 647.681h588.572M71.5 623.708h30.194M101.694 623.708h588.572M71.5 599.736h30.194M101.694 599.736h588.572M101.694 720.5v-24.173" fill="none" stroke="#a6a6a6" stroke-width=".35"/><path d="M101.694 696.327V575.263M71.5 695.827h618.766" fill="none" stroke="#404040" stroke-width=".75"/><path d="M72 720.5v-24.673M72 695.827V575.262M689.766 720.5v-24.673M689.766 695.827V575.263M71.5 720h618.766M71.5 575.763h30.194M101.694 575.763h588.572" fill="none" stroke="#a6a6a6" stroke-width=".35"/></g></g></svg>